<?xml version="1.0" encoding="iso-8859-1"?>
<!-- Generator: Adobe Illustrator 19.0.0, SVG Export Plug-In . SVG Version: 6.00 Build 0)  -->
<svg version="1.1" id="Layer_1" xmlns="http://www.w3.org/2000/svg" xmlns:xlink="http://www.w3.org/1999/xlink" x="0px" y="0px"
	 viewBox="0 0 483.198 483.198" style="enable-background:new 0 0 483.198 483.198;" xml:space="preserve">
<path style="fill:#1565C0;" d="M113.539,387.411c5.722-6.551,13.997-10.315,22.694-10.315c8.704,0,16.971,3.765,22.701,10.308
	l60.009,84.194c5.707,6.535,13.975,10.285,22.656,10.285c8.674,0,16.949-3.75,22.664-10.285l60.017-84.194
	c5.722-6.536,13.982-10.285,22.686-10.285c8.704,0,16.986,3.742,22.709,10.293c13.847,15.849,31.842,66.364,47.661,84.277
	c7.529,8.546,19.245,12.092,30.261,9.193c11.016-2.914,19.426-11.776,21.783-22.92c13.161-62.517,13.161-160.09,13.161-217.02
	C482.54,107.874,374.674,0,241.599,0C108.532,0,0.658,107.874,0.658,240.941c0,56.93,0,155.821,13.192,218.353
	c2.357,11.136,10.782,19.998,21.783,22.904c11.016,2.906,22.724-0.64,30.253-9.171C81.697,455.115,99.7,403.283,113.539,387.411z"/>
<path style="fill:#1E88E5;" d="M0.658,240.941c0,56.93,0,155.821,13.192,218.353c2.357,11.136,10.782,19.998,21.783,22.904
	c11.016,2.906,22.724-0.64,30.253-9.171c15.819-17.912,33.822-69.768,47.661-85.617c5.722-6.558,13.997-10.315,22.694-10.315
	c8.704-0.008,16.971,3.765,22.701,10.308l60.009,84.194c5.7,6.536,13.967,10.285,22.648,10.285V0
	C108.532,0,0.658,107.874,0.658,240.941z"/>
<g>
	<circle style="fill:#FFFFFF;" cx="347.011" cy="165.647" r="45.176"/>
	<circle style="fill:#FFFFFF;" cx="181.364" cy="165.647" r="45.176"/>
</g>
<g>
	<path style="fill:#212121;" d="M189.337,145.416c-4.006,0-7.71,1.19-10.88,3.162c3.072,1.792,5.233,4.984,5.233,8.802
		c0,5.715-4.623,10.338-10.338,10.338c-1.702,0-3.238-0.504-4.646-1.235c0.203,11.234,9.344,20.284,20.631,20.284
		c11.422,0,20.676-9.254,20.676-20.676C210.013,154.677,200.752,145.416,189.337,145.416z"/>
	<path style="fill:#212121;" d="M356.453,145.416c-3.998,0-7.703,1.19-10.88,3.162c3.072,1.792,5.233,4.984,5.233,8.802
		c0,5.715-4.631,10.338-10.338,10.338c-1.709,0-3.238-0.504-4.646-1.235c0.203,11.234,9.336,20.284,20.631,20.284
		c11.43,0,20.676-9.254,20.676-20.676C377.128,154.677,367.875,145.416,356.453,145.416z"/>
</g>
<g>
</g>
<g>
</g>
<g>
</g>
<g>
</g>
<g>
</g>
<g>
</g>
<g>
</g>
<g>
</g>
<g>
</g>
<g>
</g>
<g>
</g>
<g>
</g>
<g>
</g>
<g>
</g>
<g>
</g>
</svg>
